<svg version="1.1" id="Capa_1" xmlns="http://www.w3.org/2000/svg" xmlns:xlink="http://www.w3.org/1999/xlink" x="0px" y="0px" viewBox="0 0 512 512" style="enable-background:new 0 0 512 512;" xml:space="preserve" width="300" height="300" xmlns:svgjs="http://svgjs.dev/svgjs"><g width="100%" height="100%" transform="matrix(1,0,0,1,0,0)"><g>
	<g>
		<path d="M256,90.956c-91.151,0-165.044,73.893-165.044,165.044S164.849,421.044,256,421.044S421.044,347.151,421.044,256&#10;&#9;&#9;&#9;S347.151,90.956,256,90.956z M271,264.66V386h-30V247.34l102.763-59.33l15,25.98L271,264.66z" fill="#ef4d20" fill-opacity="1" data-original-color="#000000ff" stroke="none" stroke-opacity="1"/>
	</g>
</g><g>
	<g>
		<path d="M256,0C114.517,0,0,114.497,0,256c0,141.484,114.497,256,256,256c141.483,0,256-114.497,256-256&#10;&#9;&#9;&#9;C512,114.516,397.503,0,256,0z M256,451.057c-107.727,0-195.057-87.33-195.057-195.057S148.273,60.943,256,60.943&#10;&#9;&#9;&#9;S451.057,148.273,451.057,256S363.727,451.057,256,451.057z" fill="#ef4d20" fill-opacity="1" data-original-color="#000000ff" stroke="none" stroke-opacity="1"/>
	</g>
</g><g>
</g><g>
</g><g>
</g><g>
</g><g>
</g><g>
</g><g>
</g><g>
</g><g>
</g><g>
</g><g>
</g><g>
</g><g>
</g><g>
</g><g>
</g></g></svg>