<svg id="Layer_2" viewBox="0 0 512 512" xmlns="http://www.w3.org/2000/svg" data-name="Layer 2" width="300" height="300" version="1.1" xmlns:xlink="http://www.w3.org/1999/xlink" xmlns:svgjs="http://svgjs.dev/svgjs"><g width="100%" height="100%" transform="matrix(1,0,0,1,0,0)"><g id="Icon"><path id="_73" d="m315.07 263.07 98.38 98.38c-6.51 6.51-15.51 10.54-25.46 10.54h-263.99c-9.94 0-18.94-4.03-25.46-10.54l98.38-98.38 26.54 26.54c8.69 8.69 20.24 13.47 32.53 13.47s23.84-4.79 32.53-13.47l26.54-26.54zm40.79-111.79 15.74 24.71-15.74 24.71c-4.32 6.79 2.95 14.99 10.21 11.51l60.42-29.01c6.05-2.91 6.05-11.52 0-14.42l-60.42-29.01c-7.26-3.48-14.53 4.72-10.21 11.51zm-263.39 7.33c-2.85 5.15-4.47 11.08-4.47 17.38v160c0 6.31 1.63 12.23 4.47 17.38l97.38-97.38zm188.98 123.93 57.07-57.07c-12.68-12.68-20.53-30.18-20.53-49.47 0-13.16 3.65-25.47 9.99-36h-203.98c-9.94 0-18.94 4.03-25.46 10.54l132 132c14.06 14.06 36.85 14.06 50.91 0zm64.65-50.5-23.96 23.96 97.38 97.38c2.85-5.15 4.47-11.08 4.47-17.38v-99.99c-10.53 6.34-22.84 9.99-36 9.99-15.7 0-30.21-5.2-41.9-13.96zm165.9 23.96c0 141.39-114.61 256-256 256-141.39 0-256-114.61-256-256 0-141.39 114.61-256 256-256 141.38 0 256 114.61 256 256zm-54-80c0-38.6-31.4-70-70-70-21 0-39.85 9.31-52.7 24h-211.3c-25.36 0-46 20.64-46 46v160c0 25.36 20.64 46 46 46h264c25.36 0 46-20.64 46-46v-107.3c14.69-12.84 24-31.7 24-52.7zm-10 0c0 33.14-26.86 60-60 60s-60-26.86-60-60 26.86-60 60-60 60 26.86 60 60zm-17.18-16.23-60.42-29.01c-2.51-1.2-5.15-1.81-7.85-1.81-6.53 0-12.57 3.62-15.77 9.45-3.18 5.8-2.94 12.63.65 18.26l12.32 19.34-12.32 19.34c-3.59 5.63-3.83 12.46-.65 18.26 3.2 5.83 9.24 9.45 15.77 9.45 2.7 0 5.35-.61 7.85-1.81l60.42-29.01c6.3-3.02 10.21-9.24 10.21-16.23s-3.91-13.2-10.21-16.23z" data-name="73" fill="#fb5503" fill-opacity="1" data-original-color="#000000ff" stroke="none" stroke-opacity="1"/></g></g></svg>