<?xml version="1.0" encoding="utf-8"?>
<!-- Generator: Adobe Illustrator 27.5.0, SVG Export Plug-In . SVG Version: 6.00 Build 0)  -->
<svg version="1.1" id="Glyph" xmlns="http://www.w3.org/2000/svg" xmlns:xlink="http://www.w3.org/1999/xlink" x="0px" y="0px"
	 viewBox="0 0 512 512" style="enable-background:new 0 0 512 512;" xml:space="preserve">
<style type="text/css">
	.st0{fill:#EF4D20;}
</style>
<path class="st0" d="M256,16c-79.5,0.1-143.9,64.5-144,144v17.6C74.7,185.2,48,218,48,256v160c0,44.2,35.8,80,80,80h256
	c44.2,0,80-35.8,80-80V256c0-38-26.7-70.8-64-78.4V160C399.9,80.5,335.5,16.1,256,16z M304,352c0,26.5-21.5,48-48,48s-48-21.5-48-48
	v-32c0-26.5,21.5-48,48-48s48,21.5,48,48V352z M304,176h-96v-16c0-26.5,21.5-48,48-48s48,21.5,48,48V176z"/>
<path class="st0" d="M256,304c-8.7-0.1-15.9,6.9-16,15.7c0,0.1,0,0.2,0,0.3v32c0,8.8,7.2,16,16,16c8.8,0,16-7.2,16-16v-32
	c0.1-8.7-6.9-15.9-15.7-16C256.2,304,256.1,304,256,304z"/>
</svg>
