<?xml version="1.0" encoding="utf-8"?>
<!-- Generator: Adobe Illustrator 27.5.0, SVG Export Plug-In . SVG Version: 6.00 Build 0)  -->
<svg version="1.1" id="Camada_1" xmlns="http://www.w3.org/2000/svg" xmlns:xlink="http://www.w3.org/1999/xlink" x="0px" y="0px"
	 viewBox="0 0 512 512" style="enable-background:new 0 0 512 512;" xml:space="preserve">
<style type="text/css">
	.st0{fill:#EF4D20;}
</style>
<g id="Layer_2">
	<g id="Layer_copy_11">
		<g id="_78">
			<g id="background">
				<path class="st0" d="M256,20c130.4,0.1,236,105.8,235.9,236.2c-0.1,94.8-56.8,180.3-144.1,217.3c-120.4,50-258.6-7-308.6-127.4
					C-10.3,226.6,45.3,89.6,164.1,38.5C193.2,26.2,224.4,19.9,256,20 M256,0C114.6,0,0,114.6,0,256s114.6,256,256,256
					s256-114.6,256-256S397.4,0,256,0L256,0z"/>
			</g>
			<path class="st0" d="M403.3,245L348,298.9l13.1,76.1c2.4,13.7-6.8,26.8-20.6,29.2c-5.5,1-11.2,0.1-16.2-2.6L256,365.8l-68.4,35.9
				c-12.4,6.5-27.7,1.8-34.2-10.6c-2.6-4.9-3.5-10.6-2.5-16.1l13.1-76.1L108.7,245c-10-9.8-10.2-25.8-0.4-35.8c3.9-4,9-6.6,14.4-7.4
				l76.4-11.1l34.2-69.3c6.2-12.5,21.4-17.7,33.9-11.5c5,2.5,9,6.5,11.5,11.5l34.2,69.3l76.4,11.1c13.8,2,23.4,14.9,21.4,28.7
				C409.9,236,407.3,241.1,403.3,245L403.3,245z"/>
		</g>
	</g>
</g>
</svg>
