<?xml version="1.0" encoding="utf-8"?>
<!-- Generator: Adobe Illustrator 27.5.0, SVG Export Plug-In . SVG Version: 6.00 Build 0)  -->
<svg version="1.1" id="Camada_1" xmlns:svgjs="http://svgjs.dev/svgjs"
	 xmlns="http://www.w3.org/2000/svg" xmlns:xlink="http://www.w3.org/1999/xlink" x="0px" y="0px" viewBox="0 0 300 300"
	 style="enable-background:new 0 0 300 300;" xml:space="preserve">
<style type="text/css">
	.st0{fill:#25D366;}
	.st1{fill:#FFFFFF;}
</style>
<path class="st0" d="M201.9,98.1l-0.4-0.4c-28.4-28.4-74.5-28.4-103,0c-22.3,22.3-27.7,56.4-13.4,84.5l3.2,6.3l-6,29l-0.1,0.4
	l28.8-6.8l6.6,3.3c28,13.9,61.7,8.4,83.9-13.6C229.8,172.5,230,126.7,201.9,98.1z M199.5,177.8c0,0.6-0.3,1.2-0.6,1.7
	c-3.5,5.6-9.1,12.3-16.1,14c-12.3,3-31.1,0.1-54.5-21.7l-0.3-0.3c-20.6-19.1-26-35-24.7-47.6c0.7-7.2,6.7-13.6,11.7-17.9
	c2.8-2.4,7.1-2,9.5,0.8c0.4,0.5,0.8,1,1,1.6l7.6,17.1c1,2.3,0.7,4.9-0.8,6.8l-3.8,5c-1.6,2.1-1.9,5-0.6,7.3c2.1,3.8,7.3,9.3,13,14.4
	c6.4,5.8,13.5,11.1,18,12.9c2.5,1,5.3,0.4,7.1-1.5l4.4-4.5c1.7-1.7,4.3-2.4,6.6-1.7l18,5.1C198.6,170.4,200.6,174.2,199.5,177.8z"/>
<path class="st0" d="M150,0C67.2,0,0,67.2,0,150s67.2,150,150,150s150-67.2,150-150S232.8,0,150,0z M242.9,152.2
	c-1.7,51.3-44.6,91.6-96,90c-13.3-0.4-26.4-3.7-38.4-9.7l-47,11.1c-1.5,0.3-3-0.2-3.8-1.5c-0.6-0.8-0.8-1.8-0.6-2.8l9.9-47.9
	c-23.2-45.7-5-101.7,40.8-125c45.8-23.3,101.8-5.1,125.1,40.7C240,121,243.5,136.6,242.9,152.2z"/>
<path class="st1" d="M232.9,107.1c-23.3-45.8-79.3-64-125.1-40.7c-45.8,23.3-64,79.3-40.8,125l-9.9,47.9c-0.2,1,0,2,0.6,2.8
	c0.8,1.3,2.3,1.8,3.8,1.5l47-11.1c12,6,25.1,9.3,38.4,9.7c51.4,1.6,94.3-38.7,96-90C243.5,136.6,240,121,232.9,107.1z M201.5,200.8
	c-22.2,22-55.9,27.5-83.9,13.6l-6.6-3.3l-28.8,6.8l0.1-0.4l6-29l-3.2-6.3c-14.3-28.1-8.9-62.2,13.4-84.5c28.5-28.4,74.6-28.4,103,0
	l0.4,0.4C230,126.7,229.8,172.5,201.5,200.8z"/>
<path class="st1" d="M199.5,177.8c0,0.6-0.3,1.2-0.6,1.7c-3.5,5.6-9.1,12.3-16.1,14c-12.3,3-31.1,0.1-54.5-21.7l-0.3-0.3
	c-20.6-19.1-26-35-24.7-47.6c0.7-7.2,6.7-13.6,11.7-17.9c2.8-2.4,7.1-2,9.5,0.8c0.4,0.5,0.8,1,1,1.6l7.6,17.1c1,2.3,0.7,4.9-0.8,6.8
	l-3.8,5c-1.6,2.1-1.9,5-0.6,7.3c2.1,3.8,7.3,9.3,13,14.4c6.4,5.8,13.5,11.1,18,12.9c2.5,1,5.3,0.4,7.1-1.5l4.4-4.5
	c1.7-1.7,4.3-2.4,6.6-1.7l18,5.1C198.6,170.4,200.6,174.2,199.5,177.8z"/>
</svg>
