<?xml version="1.0" encoding="UTF-8"?>
<svg id="Camada_2" data-name="Camada 2" xmlns="http://www.w3.org/2000/svg" viewBox="0 0 3871.59 1529.68">
  <defs>
    <style>
      .cls-1 {
        fill: #fff;
      }

      .cls-2 {
        fill: #ef4d20;
      }
    </style>
  </defs>
  <path class="cls-1" d="m544.13,453.71V155.07h129.66c0,3.99,0,7.82,0,11.64.09,184.79.44,369.59.18,554.38-.23,163.31-108.21,294.29-268.29,327.86C202.36,1091.57,21.09,943.77,1.67,752.55c-18.04-177.63,111.73-341.89,289.12-366.08,88.78-12.11,168.82,10.58,242.3,59.98,2.92,1.96,5.88,3.87,11.03,7.27Zm-204.68,63.88c-116.56.16-205.55,88.87-205.24,204.61.29,110.74,93.31,203.26,204.31,203.24,112.88-.03,205.33-94.39,205.04-209.28-.28-109.88-91.6-198.72-204.11-198.57Z"/>
  <path class="cls-1" d="m1361.55,864.82c-62.04,142.39-214.11,221.99-382.7,175.66-156.1-42.9-263.54-210.25-217.43-387.78,43.63-167.97,219.99-271.14,387.65-227.5,151.09,39.33,263.77,184.21,238.92,352.7h-505.97c2.91,9.76,5.01,18.18,7.91,26.32,21.76,61.1,89.76,129.72,190.88,123.88,51.75-2.99,96.06-21.21,132.02-58.93,2.02-2.12,5.43-4.14,8.2-4.16,46.52-.25,93.03-.18,140.51-.18Zm-463.76-214.2h347.53c-23.71-60.55-91.69-106.32-169.32-108.54-83.07-2.37-154.03,46.52-178.2,108.54Z"/>
  <path class="cls-1" d="m2395.71,411.08v46.65c2.62-.94,4.5-1.25,5.96-2.2,141.24-92.51,315.88-33.29,392.02,93.51,24.75,41.22,37.22,86.14,37.5,133.72.72,121.53.07,243.07-.04,364.61,0,1.62-.23,3.25-.45,6.03h-124.65c0-4.5,0-9.29,0-14.08-.03-109.42.2-218.83-.21-328.25-.16-44.24-9.8-86.1-39.09-120.9-33.64-39.98-78.17-54.78-129.09-51.26-97.64,6.74-141.16,85.83-141.48,159.2-.52,116.95.08,233.9.19,350.85,0,1.28-.17,2.55-.32,4.68h-123.32V411.08h122.97Z"/>
  <path class="cls-1" d="m2006.82,1053.82h-128.14V365.82h-117.87v-128.19h117.92V0h127.36v237.13h200.61v128.06c-1.68.24-3.81.82-5.93.81-59.99-.07-119.99-.22-179.98-.31-14.38-.02-14.45.04-14.43,14.1.14,164.81.32,329.62.46,494.42.05,56.36,0,112.71,0,169.07v10.53Z"/>
  <path class="cls-1" d="m3310.25,416.32h122.19c0,5.12,0,9.62,0,14.11-.03,115.64-2.27,231.33.5,346.91,3.22,134.71-97.98,245.3-218.33,271.02-146.33,31.28-295.57-60.6-329.58-206.29-5.18-22.18-8.63-45.29-8.87-68-1.22-117.27-1.12-234.55-1.47-351.83,0-1.63.21-3.25.39-5.94h128.48c0,5.03,0,9.84,0,14.65-.03,108.43-.05,216.87-.09,325.3,0,24,.99,47.92,9.33,70.74,20.91,57.24,61.4,92.86,121.67,101.43,59.22,8.41,108.21-13.21,144.82-60.82,23.62-30.72,30.94-66.5,30.9-104.48-.12-111.71.03-223.42.07-335.13,0-3.55,0-7.09,0-11.65Z"/>
  <path class="cls-1" d="m3840.03,503.94c-33.33,23.01-66.65,46.01-100.24,69.2-26.03-27.14-57.6-34.95-93.36-25.57-18.24,4.78-32.23,15.43-35.12,35.46-2.9,20.11,4.73,36.56,22.27,46.67,18.98,10.94,39.09,19.9,58.4,30.29,31.43,16.9,63.74,32.5,93.69,51.75,92.69,59.56,113.31,174.85,47.52,262.99-43.11,57.75-103.23,80.78-173.5,78.71-54.29-1.6-103.08-19-141.1-59.44-12.17-12.95-21.46-28.61-33.12-44.46,37.14-24.15,72.33-47.03,107.71-70.03,20.98,44.31,65.83,61.88,110.59,44.32,24.27-9.52,37.91-27.55,40.44-53.29,2.38-24.16-7.57-43.49-28.2-55.45-24.32-14.09-50.07-25.69-74.8-39.09-30.17-16.36-61.65-31.03-89.54-50.7-98.51-69.48-90.08-240.85,42.28-293.38,88.7-35.2,187.3-7.85,244.36,68.53.56.75.85,1.7,1.71,3.5Z"/>
  <path class="cls-1" d="m1435.65,952.02c33.86-23.86,67.26-47.41,100.5-70.83,8.83,9.68,16.45,19.57,25.59,27.76,25.85,23.18,71.09,27.43,101.4,10.36,31.6-17.8,38.59-67.38,12.77-94.86-6.6-7.02-14.79-13.2-23.37-17.58-36.16-18.46-72.89-35.8-109.12-54.12-25.58-12.93-49.43-28.58-68.18-50.72-71.11-83.99-49.64-205.52,47.18-257.84,70.24-37.96,141.38-36.62,210.55,4.7,22.8,13.62,40.48,32.81,56.23,55.62-34.76,23.54-68.83,46.62-103.67,70.22-3.19-4.06-5.87-8.03-9.1-11.49-22.86-24.51-73.69-27.81-99.72-6.58-19,15.49-20.68,47.13-2.56,64.84,6.9,6.74,15.44,12.19,24.03,16.72,40.25,21.24,81.3,41.03,121.08,63.11,48.81,27.1,82.96,66.76,95.7,122.38,20.28,88.56-28.72,181.68-114.37,214.16-69.61,26.39-137.71,21.43-201.92-17.68-27.16-16.54-45.9-41.44-63.01-68.16Z"/>
  <path class="cls-2" d="m35.09,1021.82c85.22,77.87,181.35,129.55,300.32,128,117.42-1.53,216.99-46.01,304.93-123.22-1.14,3.68-2.07,7.43-3.45,11.01-21.02,54.39-49.8,104.65-82.66,152.57-51.41,74.97-107.19,146.41-174.3,208.28-9.61,8.86-20.48,16.34-30.36,24.93-6.68,5.81-12.72,5.62-19.1.12-20.8-17.93-43.17-34.36-62.1-54.09-90.56-94.41-168.64-197.83-223.89-317.21-4.33-9.35-7.54-19.22-11.28-28.85.63-.51,1.26-1.02,1.88-1.53Z"/>
  <path class="cls-1" d="m2083.49,1052.55V413.21h122.24v639.34h-122.24Z"/>
  <path class="cls-2" d="m3318.35,1381.94c-1.55-2.39-3.5-5.28-5.33-8.25-18.78-30.47-14.97-68.06,9.02-91.24,10.92-10.56,24.05-16.2,38.94-16.33,28.5-.25,57,.47,85.5.64,5.07.03,6.63,2.19,6.91,7.11,1.11,19.12,1.27,19.09-18.28,19.8-4.17.15-8.34.53-14.59.94,2.62,5,4.23,8.72,6.38,12.09,23.43,36.69-.47,93.51-51.1,99.9-14.07,1.78-28.65-.61-42.99-.69-4.34-.03-9.47.05-12.89,2.21-8.62,5.45-8.43,13.98.71,18.25,7.52,3.51,16.09,6.25,24.3,6.55,23.55.85,47.16.11,70.73.38,8.15.1,16.42.67,24.4,2.23,14.89,2.91,23.25,12.79,24.81,27.79,3.74,35.91-17.95,63.77-53.67,65.8-22.05,1.25-44.54.44-66.43-2.47-22.55-3-36.68-18.98-45.88-39.05-1.45-3.17-.99-7.21-1.41-10.84,5.26-.48,12.32-3.41,15.51-1.08,35.01,25.62,72.69,14.49,109.85,8.61,3.81-.6,7.97-5.72,9.95-9.73,4.87-9.87,1.5-15-9.56-15.22-10.8-.21-21.63.73-32.42.49-17.99-.39-36.04-.63-53.93-2.3-8.25-.77-16.61-3.89-24.19-7.49-13.38-6.37-19.32-18.06-19.73-32.64-.41-14.53,7.53-23.81,19.47-30.51,1.7-.95,3.36-1.98,5-3.02.23-.14.28-.57.9-1.92Zm50.53-5.76c23.4-.1,39.32-16.72,39.13-40.85-.19-23.62-18.01-42.02-40.36-41.66-22.67.36-39.32,17.96-39.21,41.44.12,24.17,16.86,41.18,40.44,41.08Z"/>
  <path class="cls-2" d="m1635.06,1472.64c12.32,3.52,21.29,6.03,30.22,8.66,6.53,1.92,12.97,5.48,19.54,5.73,23.88.9,47.81.99,71.71.74,5.26-.06,12.72.71,13.52-7.9.77-8.19-5.15-17.52-12.87-18.53-10.02-1.31-20.23-1.46-30.37-1.62-14.08-.23-28.39,1.53-42.2-.42-12.97-1.83-26.74-5.16-37.81-11.77-21.24-12.69-23.59-38.7-6.31-56.39,5.92-6.06,6.17-10.74,3.23-18.05-13.95-34.7-6.73-72.41,19.51-92.13,9.97-7.49,23.41-12.89,35.79-14.14,24.99-2.52,50.34-1.59,75.54-1.99,5.36-.09,11.14-.13,11.13,7.56,0,7.04,5.99,15.93-6.05,19.55-3.98,1.2-7.55,3.74-11.43,5.73-8.54-6.78-17.17-13.63-25.79-20.47-.7.87-1.4,1.73-2.09,2.6,2.53,2.35,4.81,5.05,7.62,6.98,32.12,22.11,28.39,69.96,9.3,93.09-10.43,12.64-22.81,22.04-39.33,23.72-16.65,1.68-33.53,6.8-50.14-1.76-2.48-1.28-9.79,1.12-10.54,3.3-1.69,4.89-2.76,12.07-.3,15.9,5.85,9.13,16.11,11.74,26.72,11.79,22.28.1,44.56.04,66.85.16,17.49.09,34,3.16,42.09,21.08,8.68,19.22,7.37,38.3-4.74,55.99-7.12,10.42-17.55,16.21-29.9,16.51-24.54.59-49.19,1.28-73.65-.26-19.33-1.21-34.95-11.34-43.61-29.31-3.07-6.37-3.37-14.07-5.64-24.32Zm66.57-94.47c25.71.09,42.56-16.91,42.86-43.23.26-23.11-16.29-40.98-38.19-41.23-23.81-.27-42.1,19.21-41.99,44.75.11,24.88,13.97,39.63,37.32,39.71Z"/>
  <path class="cls-2" d="m2673.32,1281.41c0-3.83.02-7.66,0-11.49-.2-34.05-.13-68.1-.81-102.14-.18-8.86,2.74-11.18,11.23-10.89,19.61.69,17.54-1.52,17.59,17.59.15,56.63-.21,113.27-.54,169.9-.09,15.79-4.91,30.22-13.83,43.33-19.74,29.06-47.76,39.79-83.99,31.98-29.66-6.39-53.05-30.7-57.79-60.05-5.92-36.74,6.73-68.09,36.29-84.37,27.04-14.9,54.66-13.49,81.3,2.43,2.66,1.59,5.16,3.45,7.73,5.19.94-.49,1.87-.99,2.81-1.48Zm-1.82,63.68c.13-28.47-22.73-52.26-50.21-52.24-28.63.02-47.12,20.42-47.45,52.35-.3,29.31,19.92,50.35,48.51,50.47,27.35.12,49.02-22.18,49.14-50.58Z"/>
  <path class="cls-2" d="m1529.99,1207.43c28.64,70.53,57.28,141.06,86.75,213.62-10.81,0-19.17.3-27.48-.22-2.02-.12-4.88-2.56-5.62-4.56-3.1-8.44-9.32-9.58-17.24-9.45-27.86.47-55.73.51-83.6.57-6.31.01-11.51.67-13.83,8.04-.71,2.26-4.46,4.75-7.03,5.02-6.76.7-13.64.24-22.38.24,29.32-71.64,58.15-142.09,86.97-212.53,1.15-.24,2.3-.47,3.44-.71Zm-1.94,70.15c-2.36,2.77-3.48,3.59-3.94,4.69-11.9,28.66-23.69,57.37-35.58,86.03-3.03,7.31.22,9.39,7.05,9.38,22.23-.05,44.46.12,66.69.06,2.36,0,4.72-.92,8.19-1.64-14.22-33.04-27.95-64.93-42.4-98.52Z"/>
  <path class="cls-2" d="m1883.52,1353.56c-17.37,0-34.73-.1-52.1.04-9.64.07-11.3,2.61-7.82,11.09,13.95,34.05,61.61,42,85.34,13.92,3.89-4.6,6.63-4.63,11.48-2.49,19.35,8.52,19.92,11.29,4.42,25.39-40.68,37.01-109.03,22.53-129.53-27.43-13.14-32.03-1.78-72.4,26.6-94.55,24.83-19.38,68.19-19.69,93.93,0,22.6,17.29,28.7,42.06,28.65,68.9,0,1.78-5.11,5.01-7.9,5.09-17.68.47-35.38.24-53.07.24,0-.07,0-.13,0-.2Zm-14.15-26.39c0,.24,0,.49,0,.73,11.12,0,22.24.09,33.35-.03,12.34-.13,14-2.94,7.76-13.83-8.65-15.1-21.35-23.07-39.32-22.81-19.99.29-35.45,7.78-45.32,25.53-3.9,7.01-1.62,10.41,6.28,10.4,12.42-.02,24.84,0,37.26,0Z"/>
  <path class="cls-2" d="m2860.46,1382.62c-11.96,20.19-28.76,32.96-50.76,38-31.43,7.2-66.71-6.72-83.12-31.8-16.35-25-15.55-66.37,1.77-91.28,17.38-25,52.45-37.05,84.02-28.86,30.04,7.79,52.38,33.31,55.26,64.37,2.29,24.66,3.07,19.99-18.11,20.13-31.41.21-62.83-.6-94.25-1.1-11.28-.18-12.48,1.29-8.4,11.48,13.2,33.01,48.19,41.73,79.76,19.89,13.32-9.22,17.8-9.42,33.83-.81Zm-69.91-55.4c0,.26,0,.52,0,.78,12.42,0,24.84.02,37.25,0,6.28-.01,10.08-2.48,6.36-8.95-9.18-15.93-22.01-25.71-41.56-26.62-19.96-.92-34.16,6.75-43.54,23.84-4.39,8-2.74,10.73,6.19,10.9,11.76.23,23.53.06,35.3.06Z"/>
  <path class="cls-2" d="m3605.17,1382.53c-5.86,6.72-11.16,14.05-17.68,20.05-31.08,28.63-88.39,24.48-114.32-7.43-24.5-30.15-23.4-91.45,15.83-116.36,28.18-17.89,57.59-17.29,85.89-1.76,27.18,14.91,35.96,40.98,36.52,70.56.14,7.46-5.21,6.3-9.54,6.32-33.09.15-66.18.07-99.27.34-5.31.04-10.61,1.52-15.92,2.33,1.93,5.4,3.04,11.29,5.93,16.11,14.95,24.96,51.89,31.54,74.66,11.87,12.41-10.71,23.89-5.34,36.05-4.78.61.91,1.23,1.82,1.84,2.74Zm-23.81-55.39c-4.38-22.84-27.08-36.67-53.84-34.54-20.91,1.67-39.43,17.8-39.77,34.54h93.62Z"/>
  <path class="cls-2" d="m2437.07,1401.23c-3.58,2.5-6.02,4-8.23,5.78-24.75,19.92-51.99,20.27-79.3,7.74-27.18-12.46-40.2-35.28-40.9-65.16-.68-28.98,7.96-54.18,32.95-70.44,25.97-16.9,54.46-18.21,82.5-5.35,27.87,12.78,40.24,36.14,40.37,66.35.1,23.56,0,47.11.32,70.67.1,7.02-1.27,11.8-9.61,10.45-6.63-1.08-17.14,4.69-16.73-9.33.09-3.1-.76-6.22-1.36-10.71Zm-98.91-56.52c0,30.72,19.51,51.91,47.89,52.03,27.48.12,48.8-22.66,48.67-52-.14-30.73-20.36-51.86-49.5-51.71-25.88.13-47.07,23.4-47.07,51.67Z"/>
  <path class="cls-2" d="m3248.78,1401.71c-4.32,3.08-6.9,4.44-8.89,6.4-31.09,30.69-99.67,16.32-113.2-40.21-8.34-34.84,3.86-72.3,30.54-89.22,27.64-17.52,57.07-16.47,85.41-2.44,26.68,13.2,37.82,36.92,37.87,66.15.05,26.11,0,52.21,0,79.26-9.38,0-16.88.55-24.21-.32-2.35-.28-5.06-4-6.14-6.73-1.24-3.14-.85-6.92-1.39-12.9Zm2.73-59.8c-.53-15.29-6.28-32.5-24.39-42.92-17.12-9.86-35.02-8.96-51.47.78-17.88,10.58-22.98,28.5-22.52,48.23.68,29.37,20.29,49.69,47.35,49.4,29.23-.32,50.88-22,51.02-55.48Z"/>
  <path class="cls-2" d="m3650.74,1421.91h-26.44c-.2-3.66-.53-6.84-.53-10.03.03-45.86.28-91.72,0-137.57-.05-7.95,2.07-10.91,10.35-10.84,19.86.17,18.2-2.88,17.4,17.37-.06,1.57,0,3.14,0,6.32,2.83-1.79,4.81-2.57,6.15-3.96,30.55-31.54,82.51-21.5,98.47,19.55,3.61,9.29,5.69,19.68,6.03,29.65.93,27.16.47,54.37.79,81.55.07,5.65-1.49,8.12-7.67,8.43-20.78,1.06-20.79,1.29-21.04-19.26-.26-20.96-.04-41.94-.91-62.88-.32-7.67-2.2-15.62-5.04-22.78-7.55-19.03-22.59-27.13-42.25-23.93-17.63,2.87-32.9,19.67-33.55,38.65-.92,26.84-.82,53.71-1.19,80.57-.04,2.86-.35,5.71-.57,9.16Z"/>
  <path class="cls-2" d="m1989.76,1279.36c11.81-13.9,27.12-16.17,43.2-15.83,34.07.73,58.55,21.92,60.84,55.81,2.16,31.95,1.52,64.09,1.66,96.15,0,2.17-3.78,4.39-5.92,6.48-.34.33-1.27.08-1.92.09-24.31.05-19.38,2.13-19.5-18.6-.13-22.9.71-45.81.6-68.71-.1-21.66-12.96-38.8-30.99-42.41-24.31-4.86-47.15,11.34-48.41,36.09-1.4,27.43-1.26,54.96-.99,82.44.09,8.96-2.43,11.88-11.5,11.61-19.11-.55-16.25,1.07-16.24-16.3.03-42.87.14-85.74.46-128.61.03-4.48-2.97-10.91,5.94-11.78,14.95-1.45,17.45-.55,19.84,9.25.21.86,1.03,1.56,2.92,4.31Z"/>
  <path class="cls-2" d="m2110.79,1345.96c.3-39.11,20.42-68.8,53.52-76.71,27.53-6.58,53.33-2.91,75.21,17.18,5.58,5.12,5.75,8.06-.87,12.63-9.45,6.51-17,7.68-28.18,1.62-26.47-14.36-54.64-5.2-66.12,19.26-12.76,27.18-2.96,59.19,22.12,70.96,19.28,9.05,36.33,2.97,52.19-8.96,5.87-4.41,24.41.6,26.27,7.67.62,2.34-1.63,6.05-3.53,8.33-24.01,28.85-73.68,32.35-103.14,7.32-18.26-15.5-28.26-34.92-27.46-59.29Z"/>
  <path class="cls-2" d="m3859.19,1278.24c-4.13,5.67-5.92,7.97-7.54,10.38-6.04,8.98-12.93,14.29-24.29,7.89-3.52-1.98-8.44-3.01-12.35-2.35-4.62.78-11.19,2.86-12.65,6.22-1.8,4.15-.94,11.63,1.91,15.09,4.12,5.01,10.88,8.01,16.82,11.33,10.54,5.88,22,10.36,31.81,17.23,15.51,10.86,20.53,28.88,15.05,47.14-5.31,17.7-19.29,29.37-37.52,31.48-17.1,1.98-32.32-2.7-46.41-12.25-5.44-3.69-7.07-7.38-2.18-12.59,1.11-1.19,1.97-2.61,2.98-3.9,8.48-10.91,8.04-10.16,19.53-3.24,6.39,3.85,14.57,6.56,21.95,6.55,13.38-.01,19.62-14.39,11.1-24.74-4.02-4.89-9.82-8.52-15.28-12-8.82-5.63-18.35-10.18-26.99-16.05-18.43-12.55-25.13-33.58-17.36-52.38,7.87-19.03,28.42-30,50.11-25.28,10.16,2.21,19.73,7.13,31.28,11.47Z"/>
  <path class="cls-2" d="m2997.08,1351.04c3.29-7.38,5.88-12.84,8.19-18.41,7.76-18.76,15.84-37.41,22.91-56.44,2.89-7.79,6.91-10.99,15.11-10.09,5.69.62,11.5.12,20.02.12-22.83,52.86-44.65,103.38-67.55,156.4-22.74-53-44.43-103.55-67.29-156.83,11.65,0,20.46-.76,29,.42,2.9.4,6.02,5.33,7.49,8.84,9.38,22.34,18.3,44.88,27.44,67.32.94,2.3,2.35,4.4,4.68,8.67Z"/>
  <path class="cls-2" d="m3082.71,1265.25c8.23,0,15.69-.38,23.07.27,1.83.16,4.82,3.64,4.83,5.61.14,49.7-.05,99.4-.2,149.09,0,.27-.33.54-1.49,2.28-6.35,0-13.78.45-21.08-.31-1.91-.2-4.9-4.17-4.91-6.43-.28-49.7-.22-99.4-.22-150.52Z"/>
  <path class="cls-2" d="m2269.35,1422.39v-158.48c1.18-.61,1.47-.86,1.77-.89q24.17-2.52,24.13,21.31c0,41.9-.25,83.8.39,125.69.15,10.02-2.67,13.79-12.58,12.47-4.15-.55-8.43-.09-13.71-.09Z"/>
  <path class="cls-2" d="m1898.75,1236.02c-20.47,13.96-41.59,3.24-63.15,3.83,11.62-12.25,23.23-24.5,35.72-37.66,9.37,11.55,18.06,22.28,27.43,33.83Z"/>
  <path class="cls-2" d="m3083.43,1217.9h26.99c0,8.68.21,16.96-.2,25.22-.07,1.47-2.65,2.87-4.2,4.16-.4.33-1.26.08-1.91.14q-20.38,1.73-20.68-18.77c-.05-3.22,0-6.43,0-10.74Z"/>
  <path class="cls-2" d="m2267.69,1217.9h26.99c0,8.68.21,16.96-.2,25.22-.07,1.47-2.65,2.87-4.2,4.16-.4.33-1.26.08-1.91.14q-20.38,1.73-20.68-18.77c-.05-3.22,0-6.43,0-10.74Z"/>
</svg>