<?xml version="1.0" encoding="utf-8"?>
<!-- Generator: Adobe Illustrator 27.5.0, SVG Export Plug-In . SVG Version: 6.00 Build 0)  -->
<svg version="1.1" id="Capa_1" xmlns="http://www.w3.org/2000/svg" xmlns:xlink="http://www.w3.org/1999/xlink" x="0px" y="0px"
	 viewBox="0 0 512 512" style="enable-background:new 0 0 512 512;" xml:space="preserve">
<style type="text/css">
	.st0{fill:#EF4D20;}
</style>
<g id="XMLID_17_">
	<path id="XMLID_62_" class="st0" d="M300.3,349.5c0-4.6,0.5-9,1.5-13.2h-76.4l-37.7,92.2h0.5v82.9h112.1L300.3,349.5L300.3,349.5z"
		/>
	<path id="XMLID_821_" class="st0" d="M158.7,428.5l-34.6-92.2H0.6v175.1h157.6v-82.9H158.7z"/>
	<path id="XMLID_822_" class="st0" d="M115.7,280.4c-38.2-17.3-66.7-50.5-78.5-89.9c-1.8,5.4-3.9,10.8-6.3,16
		c-10.1,22.1-15.3,46.2-15.3,70.5v29.2h100.1V280.4z"/>
	<path id="XMLID_823_" class="st0" d="M234.5,280.2v26h84.2c4.5-4.4,9.7-8,15.4-10.8V277c0-24.3-5.2-48.4-15.3-70.5
		c-2.4-5.2-4.5-10.5-6.3-15.9c-4.4,14.9-11.3,29-20.4,41.9C277.3,253.3,257.5,269.7,234.5,280.2L234.5,280.2z"/>
	<path id="XMLID_824_" class="st0" d="M209.6,60.9h30c0,10.3,8.4,18.7,18.7,18.7h27.3C274.4,34,233.2,0,184.2,0h-18.7
		c-49,0-90.2,34-101.4,79.6h126.7C201.2,79.6,209.6,71.2,209.6,60.9L209.6,60.9z"/>
	<path id="XMLID_827_" class="st0" d="M288.6,149.4v-39.8h-30.3c-13.1,0-24.9-5.2-33.7-13.6c-8.8,8.4-20.6,13.6-33.7,13.6H61.2v39.8
		c0,47.6,30,90.5,74.7,106.8l9.9,3.6v48.5l28.1,74.9l30.7-75.1v-48.4l9.8-3.6C258.7,239.7,288.6,196.8,288.6,149.4L288.6,149.4z
		 M117.4,130.8h30v30.1h-30V130.8z M174.9,230.6c-23.9,0-43.3-19.4-43.3-43.3h30c0,7.3,6,13.3,13.3,13.3s13.3-6,13.3-13.3h30
		C218.2,211.2,198.8,230.6,174.9,230.6L174.9,230.6z M229,160.8h-30v-30.1h30V160.8z"/>
	<path id="XMLID_833_" class="st0" d="M330.3,416.3h60.3V512h-60.3V416.3z"/>
	<path id="XMLID_834_" class="st0" d="M376.1,291.4V30.3h-29.4v260.7c4.4-1,9-1.6,13.8-1.6C365.9,289.3,371.1,290.1,376.1,291.4
		L376.1,291.4z"/>
	<path id="XMLID_835_" class="st0" d="M511.4,113.2L406.1,63.8v98.9L511.4,113.2z"/>
	<path id="XMLID_836_" class="st0" d="M360.5,319.3c-16.6,0-30.2,13.5-30.2,30.2v36.8h60.3v-36.8
		C390.6,332.9,377.1,319.3,360.5,319.3z"/>
</g>
</svg>
