<svg version="1.1" id="Capa_1" xmlns="http://www.w3.org/2000/svg" xmlns:xlink="http://www.w3.org/1999/xlink" x="0px" y="0px" viewBox="0 0 426.667 426.667" style="enable-background:new 0 0 426.667 426.667;" xml:space="preserve" width="300" height="300" xmlns:svgjs="http://svgjs.dev/svgjs"><g width="100%" height="100%" transform="matrix(1,0,0,1,0,0)"><g>
	<g>
		<path d="M384,0H42.667c-12.8,0-21.333,8.533-21.333,21.333v384c0,12.8,8.533,21.333,21.333,21.333h128V320H256v106.667h128&#10;&#9;&#9;&#9;c12.8,0,21.333-8.533,21.333-21.333v-384C405.333,8.533,396.8,0,384,0z M106.667,341.333H64v-42.667h42.667V341.333z M106.667,256&#10;&#9;&#9;&#9;H64v-42.667h42.667V256z M106.667,170.667H64V128h42.667V170.667z M106.667,85.333H64V42.667h42.667V85.333z M192,256h-42.667&#10;&#9;&#9;&#9;v-42.667H192V256z M192,170.667h-42.667V128H192V170.667z M192,85.333h-42.667V42.667H192V85.333z M277.333,256h-42.667v-42.667&#10;&#9;&#9;&#9;h42.667V256z M277.333,170.667h-42.667V128h42.667V170.667z M277.333,85.333h-42.667V42.667h42.667V85.333z M362.667,341.333H320&#10;&#9;&#9;&#9;v-42.667h42.667V341.333z M362.667,256H320v-42.667h42.667V256z M362.667,170.667H320V128h42.667V170.667z M362.667,85.333H320&#10;&#9;&#9;&#9;V42.667h42.667V85.333z" fill="#ef4d20" fill-opacity="1" data-original-color="#000000ff" stroke="none" stroke-opacity="1"/>
	</g>
</g><g>
</g><g>
</g><g>
</g><g>
</g><g>
</g><g>
</g><g>
</g><g>
</g><g>
</g><g>
</g><g>
</g><g>
</g><g>
</g><g>
</g><g>
</g></g></svg>