<svg id="Capa_1" enable-background="new 0 0 512 512" height="300" viewBox="0 0 512 512" width="300" xmlns="http://www.w3.org/2000/svg" version="1.1" xmlns:xlink="http://www.w3.org/1999/xlink" xmlns:svgjs="http://svgjs.dev/svgjs"><g width="100%" height="100%" transform="matrix(1,0,0,1,0,0)"><path d="m122.494 231c-11.332 0-21.492 5.852-27.18 15.652-5.688 9.801-5.728 21.526-.105 31.364l27.285 47.75 27.286-47.75c5.622-9.838 5.583-21.563-.104-31.364-5.689-9.801-15.85-15.652-27.182-15.652z" fill="#ef4d20" fill-opacity="1" data-original-color="#000000ff" stroke="none" stroke-opacity="1"/><circle cx="406" cy="156" r="15" fill="#ef4d20" fill-opacity="1" data-original-color="#000000ff" stroke="none" stroke-opacity="1"/><path d="m501.708 81.758-121-40c-3.07-1.014-6.385-1.01-9.451.012l-115.257 38.418-115.257-38.419c-3.067-1.021-6.384-1.025-9.451-.012l-121 40c-6.144 2.032-10.292 7.773-10.292 14.243v360c0 4.815 2.312 9.338 6.214 12.157 3.902 2.821 8.923 3.594 13.494 2.085l116.272-38.438 115.276 38.426c3.078 1.025 6.408 1.025 9.486 0l115.276-38.426 116.272 38.438c1.538.509 3.127.758 4.707.758 3.115 0 6.197-.971 8.787-2.843 3.904-2.819 6.216-7.342 6.216-12.157v-360c0-6.47-4.148-12.211-10.292-14.242zm-366.19 281.684c-2.67 4.673-7.641 7.558-13.023 7.558s-10.354-2.885-13.023-7.558l-40.309-70.541c-10.989-19.231-10.913-42.149.204-61.307 11.117-19.157 30.978-30.594 53.127-30.594s42.011 11.438 53.129 30.595c11.117 19.157 11.193 42.076.204 61.307zm230.482 7.558h-180c-8.284 0-15-6.716-15-15s6.716-15 15-15h180c19.299 0 35-15.701 35-35s-15.701-35-35-35h-90c-35.841 0-65-29.159-65-65s29.159-65 65-65h40c8.284 0 15 6.716 15 15s-6.716 15-15 15h-40c-19.299 0-35 15.701-35 35s15.701 35 35 35h90c35.841 0 65 29.159 65 65s-29.159 65-65 65zm40-170c-24.813 0-45-20.187-45-45s20.187-45 45-45 45 20.187 45 45-20.187 45-45 45z" fill="#ef4d20" fill-opacity="1" data-original-color="#000000ff" stroke="none" stroke-opacity="1"/></g></svg>